<svg width="110" height="66" viewBox="0 0 232 66" fill="none" xmlns="http://www.w3.org/2000/svg">
<path d="M23.4745 9.57666C10.5382 9.57666 0.0512695 20.0636 0.0512695 32.9999C0.0512695 45.9363 10.5382 56.4232 23.4745 56.4232V33.0135C23.4818 45.9436 33.966 56.4232 46.8978 56.4232C59.8341 56.4232 70.3211 45.9363 70.3211 32.9999C70.3211 20.0636 59.8341 9.57667 46.8978 9.57667C33.966 9.57667 23.4818 20.0563 23.4745 32.9864V9.57666Z" fill="url(#paint0_linear_10_87747)"/>
<path d="M70.3211 32.9999C70.3211 45.9363 80.8081 56.4232 93.7444 56.4232V9.57667C80.8081 9.57667 70.3211 20.0636 70.3211 32.9999Z" fill="url(#paint1_linear_10_87747)"/>
<path d="M113.134 52.5V13.6513H128.689C131.547 13.6513 133.931 14.0749 135.84 14.9222C137.75 15.7695 139.185 16.9456 140.146 18.4505C141.107 19.9427 141.588 21.6626 141.588 23.6101C141.588 25.1276 141.284 26.4618 140.677 27.6126C140.07 28.7507 139.236 29.6865 138.173 30.42C137.124 31.1408 135.922 31.653 134.569 31.9565V32.3359C136.049 32.3991 137.433 32.8164 138.723 33.5878C140.026 34.3592 141.082 35.4405 141.891 36.8315C142.701 38.21 143.105 39.8539 143.105 41.7635C143.105 43.8248 142.593 45.6648 141.569 47.2835C140.557 48.8895 139.058 50.1605 137.073 51.0963C135.088 52.0321 132.641 52.5 129.732 52.5H113.134ZM121.348 45.7849H128.044C130.333 45.7849 132.002 45.3487 133.052 44.4761C134.101 43.5908 134.626 42.4148 134.626 40.9478C134.626 39.8729 134.367 38.9245 133.848 38.1025C133.33 37.2805 132.59 36.6355 131.629 36.1676C130.68 35.6997 129.549 35.4658 128.233 35.4658H121.348V45.7849ZM121.348 29.9078H127.437C128.562 29.9078 129.561 29.7118 130.434 29.3198C131.319 28.9151 132.015 28.346 132.52 27.6126C133.039 26.8791 133.298 26.0002 133.298 24.9758C133.298 23.5721 132.799 22.4403 131.8 21.5804C130.813 20.7204 129.41 20.2905 127.589 20.2905H121.348V29.9078ZM153.401 53.0501C151.542 53.0501 149.886 52.7276 148.432 52.0827C146.977 51.4251 145.826 50.4577 144.979 49.1804C144.145 47.8905 143.727 46.2845 143.727 44.3623C143.727 42.7436 144.024 41.3841 144.619 40.2839C145.213 39.1837 146.022 38.2985 147.047 37.6282C148.071 36.958 149.235 36.4521 150.537 36.1107C151.852 35.7693 153.231 35.529 154.672 35.3899C156.367 35.2128 157.733 35.0484 158.77 34.8967C159.807 34.7323 160.559 34.492 161.027 34.1759C161.495 33.8597 161.729 33.3918 161.729 32.7721V32.6583C161.729 31.457 161.35 30.5275 160.591 29.8699C159.845 29.2123 158.782 28.8835 157.404 28.8835C155.95 28.8835 154.793 29.206 153.933 29.8509C153.073 30.4832 152.504 31.2799 152.225 32.241L144.752 31.634C145.131 29.8635 145.877 28.3334 146.99 27.0435C148.103 25.7409 149.538 24.7419 151.296 24.0464C153.066 23.3382 155.115 22.9841 157.442 22.9841C159.061 22.9841 160.61 23.1738 162.089 23.5532C163.582 23.9325 164.903 24.5206 166.054 25.3173C167.217 26.114 168.134 27.1383 168.804 28.3903C169.475 29.6296 169.81 31.1155 169.81 32.848V52.5H162.146V48.4596H161.919C161.451 49.3701 160.825 50.1731 160.041 50.8687C159.257 51.5515 158.314 52.089 157.214 52.481C156.114 52.8604 154.843 53.0501 153.401 53.0501ZM155.716 47.4732C156.904 47.4732 157.954 47.2392 158.865 46.7713C159.775 46.2908 160.49 45.6458 161.008 44.8365C161.527 44.0271 161.786 43.1103 161.786 42.086V38.994C161.533 39.1584 161.185 39.3102 160.743 39.4493C160.313 39.5757 159.826 39.6959 159.282 39.8097C158.738 39.9108 158.194 40.0057 157.651 40.0942C157.107 40.1701 156.614 40.2396 156.171 40.3029C155.222 40.442 154.394 40.6633 153.686 40.9668C152.978 41.2703 152.428 41.6813 152.036 42.1998C151.644 42.7056 151.448 43.3379 151.448 44.0967C151.448 45.1969 151.846 46.0379 152.643 46.6196C153.452 47.1887 154.476 47.4732 155.716 47.4732ZM180.196 44.1157L180.215 34.4225H181.391L190.724 23.3635H200L187.461 38.0076H185.545L180.196 44.1157ZM172.874 52.5V13.6513H180.955V52.5H172.874ZM191.084 52.5L182.51 39.8097L187.898 34.1L200.55 52.5H191.084ZM219.444 40.0942V23.3635H227.525V52.5H219.766V47.2076H219.463C218.805 48.9148 217.711 50.2869 216.181 51.3239C214.664 52.3609 212.811 52.8794 210.623 52.8794C208.676 52.8794 206.962 52.4368 205.483 51.5515C204.003 50.6663 202.846 49.408 202.011 47.7767C201.189 46.1454 200.772 44.1915 200.759 41.9152V23.3635H208.84V40.4736C208.853 42.1935 209.314 43.5529 210.225 44.552C211.135 45.551 212.356 46.0505 213.886 46.0505C214.86 46.0505 215.77 45.8292 216.617 45.3866C217.465 44.9313 218.148 44.2611 218.666 43.3759C219.197 42.4906 219.457 41.3968 219.444 40.0942Z" fill="black"/>
<defs>
<linearGradient id="paint0_linear_10_87747" x1="-28.9232" y1="24.2162" x2="110.544" y2="23.5901" gradientUnits="userSpaceOnUse">
<stop stop-color="#61A6F2"/>
<stop offset="0.345" stop-color="#8F6FDB"/>
<stop offset="0.77" stop-color="#FF5A5E"/>
<stop offset="1" stop-color="#F2C94C"/>
</linearGradient>
<linearGradient id="paint1_linear_10_87747" x1="-28.9232" y1="24.2162" x2="110.544" y2="23.5901" gradientUnits="userSpaceOnUse">
<stop stop-color="#61A6F2"/>
<stop offset="0.345" stop-color="#8F6FDB"/>
<stop offset="0.77" stop-color="#FF5A5E"/>
<stop offset="1" stop-color="#F2C94C"/>
</linearGradient>
</defs>
</svg>
