<svg width="24" height="22" viewBox="0 0 24 22" fill="none" xmlns="http://www.w3.org/2000/svg">
<path d="M1.36108 1H4.69443L9.13889 11M9.13889 11H18.0278L22.4723 3.22223M9.13889 11L6.3611 15.4445H20.25" stroke="#FA5853" stroke-width="2" stroke-linecap="round" stroke-linejoin="round"/>
<path d="M6.91653 21.0001C7.53019 21.0001 8.02765 20.5026 8.02765 19.8889C8.02765 19.2753 7.53019 18.7778 6.91653 18.7778C6.30288 18.7778 5.80542 19.2753 5.80542 19.8889C5.80542 20.5026 6.30288 21.0001 6.91653 21.0001Z" stroke="#FA5853" stroke-width="2" stroke-linecap="round" stroke-linejoin="round"/>
<path d="M19.1389 21.0001C19.7526 21.0001 20.2501 20.5026 20.2501 19.8889C20.2501 19.2753 19.7526 18.7778 19.1389 18.7778C18.5253 18.7778 18.0278 19.2753 18.0278 19.8889C18.0278 20.5026 18.5253 21.0001 19.1389 21.0001Z" stroke="#FA5853" stroke-width="2" stroke-linecap="round" stroke-linejoin="round"/>
</svg>
